<?xml version="1.0" standalone="no"?>
<!DOCTYPE svg PUBLIC "-//W3C//DTD SVG 20010904//EN"
 "http://www.w3.org/TR/2001/REC-SVG-20010904/DTD/svg10.dtd">
<svg version="1.0" xmlns="http://www.w3.org/2000/svg"
 width="217.000000pt" height="233.000000pt" viewBox="0 0 217.000000 233.000000"
 preserveAspectRatio="xMidYMid meet">

<g transform="translate(0.000000,233.000000) scale(0.100000,-0.100000)"
fill="#000000" stroke="none">
<path d="M970 1845 l0 -85 -84 0 c-75 0 -88 -3 -113 -24 l-28 -24 -2 -229 -3
-229 153 -151 c83 -83 161 -152 172 -153 11 -1 29 -2 39 -1 11 0 89 70 173
154 l154 152 -3 228 -3 229 -28 24 c-25 21 -38 24 -113 24 l-84 0 0 85 0 85
-115 0 -115 0 0 -85z m176 -301 c41 -20 61 -45 75 -97 8 -30 6 -45 -10 -81
-23 -53 -56 -77 -115 -83 -34 -4 -53 0 -80 16 -41 26 -81 99 -71 133 16 58 31
81 64 104 42 28 89 31 137 8z"/>
</g>
</svg>
